<svg class="animated" id="freepik_stories-raising-hand" xmlns="http://www.w3.org/2000/svg"
   viewBox="0 0 500 500" version="1.1" xmlns:xlink="http://www.w3.org/1999/xlink"
   xmlns:svgjs="http://svgjs.com/svgjs">
   <style>svg#freepik_stories-raising-hand:not(.animated) .animable {opacity:
      0;}svg#freepik_stories-raising-hand.animated #freepik--background-complete--inject-83
      {animation: 1s 1 forwards cubic-bezier(.36,-0.01,.5,1.38) lightSpeedLeft;animation-delay:
      0s;}svg#freepik_stories-raising-hand.animated #freepik--Table--inject-83 {animation: 1s 1
      forwards cubic-bezier(.36,-0.01,.5,1.38) slideUp;animation-delay:
      0s;}svg#freepik_stories-raising-hand.animated #freepik--speech-bubble--inject-83 {animation:
      1s 1 forwards cubic-bezier(.36,-0.01,.5,1.38) zoomOut;animation-delay:
      0s;}svg#freepik_stories-raising-hand.animated #freepik--Clock--inject-83 {animation: 1s 1
      forwards cubic-bezier(.36,-0.01,.5,1.38) slideRight;animation-delay:
      0s;}svg#freepik_stories-raising-hand.animated #freepik--Sheets--inject-83 {animation: 1s 1
      forwards cubic-bezier(.36,-0.01,.5,1.38) zoomIn;animation-delay:
      0s;}svg#freepik_stories-raising-hand.animated #freepik--Character--inject-83 {animation: 1s 1
      forwards cubic-bezier(.36,-0.01,.5,1.38) fadeIn,3s Infinite linear wind;animation-delay:
      0s,1s;} @keyframes lightSpeedLeft { from { transform: translate3d(-50%, 0, 0) skewX(20deg);
      opacity: 0; } 60% { transform: skewX(-10deg); opacity: 1; } 80% { transform: skewX(2deg); } to
      { opacity: 1; transform: translate3d(0, 0, 0); } } @keyframes slideUp { 0% { opacity: 0;
      transform: translateY(30px); } 100% { opacity: 1; transform: inherit; } } @keyframes zoomOut {
      0% { opacity: 0; transform: scale(1.5); } 100% { opacity: 1; transform: scale(1); } }
      @keyframes slideRight { 0% { opacity: 0; transform: translateX(30px); } 100% { opacity: 1;
      transform: translateX(0); } } @keyframes zoomIn { 0% { opacity: 0; transform: scale(0.5); }
      100% { opacity: 1; transform: scale(1); } } @keyframes fadeIn { 0% { opacity: 0; } 100% {
      opacity: 1; } } @keyframes wind { 0% { transform: rotate( 0deg ); } 25% { transform: rotate(
      1deg ); } 75% { transform: rotate( -1deg ); } } </style>
   <g id="freepik--background-complete--inject-83" class="animable"
      style="transform-origin: 248.645px 228.215px;">
      <rect x="305.94" y="187.7" width="40.79" height="228.82"
         style="fill: rgb(235, 235, 235); transform-origin: 326.335px 302.11px;" id="el4gd58daj27d"
         class="animable"></rect>
      <rect x="346.49" y="187.7" width="128.97" height="228.82"
         style="fill: rgb(245, 245, 245); transform-origin: 410.975px 302.11px;" id="el76ri1ay8avf"
         class="animable"></rect>
      <rect x="356.91" y="194.84" width="112.43" height="99.9"
         style="fill: rgb(224, 224, 224); transform-origin: 413.125px 244.79px;" id="elp5qyoksycu"
         class="animable"></rect>
      <rect x="356.91" y="305.41" width="112.43" height="99.9"
         style="fill: rgb(224, 224, 224); transform-origin: 413.125px 355.36px;" id="elnsor9yig45"
         class="animable"></rect>
      <polygon
         points="369.6 264.73 369.6 293.21 411.25 293.21 457.19 293.21 457.19 264.73 369.6 264.73"
         style="fill: rgb(245, 245, 245); transform-origin: 413.395px 278.97px;" id="eln0cydq2jw1"
         class="animable"></polygon>
      <polygon
         points="365.93 256.77 365.93 264.73 460.25 264.73 460.25 256.77 411.25 256.77 365.93 256.77"
         style="fill: rgb(245, 245, 245); transform-origin: 413.09px 260.75px;" id="elvizhf9n3zx"
         class="animable"></polygon>
      <polygon
         points="413.09 293.21 457.19 293.21 457.19 264.73 460.25 264.73 460.25 256.77 411.25 256.77 411.25 263.99 413.09 293.21"
         style="fill: rgb(245, 245, 245); transform-origin: 435.75px 274.99px;" id="el47gjnzyrr6d"
         class="animable"></polygon>
      <rect x="381.85" y="269.32" width="17.76" height="4.29"
         style="fill: rgb(255, 255, 255); transform-origin: 390.73px 271.465px;" id="elis4eefryewi"
         class="animable"></rect>
      <rect x="379.56" y="278.97" width="22.81" height="9.05"
         style="fill: rgb(255, 255, 255); transform-origin: 390.965px 283.495px;" id="elcfkmkvwe54e"
         class="animable"></rect>
      <path
         d="M461,264.65c0,.24-21.18.44-47.3.44s-47.3-.2-47.3-.44,21.17-.43,47.3-.43S461,264.41,461,264.65Z"
         style="fill: rgb(224, 224, 224); transform-origin: 413.7px 264.655px;" id="elrys62an94gh"
         class="animable"></path>
      <path
         d="M414.27,293.1c-.24,0-.44-6.31-.44-14.1s.2-14.11.44-14.11.43,6.32.43,14.11S414.51,293.1,414.27,293.1Z"
         style="fill: rgb(224, 224, 224); transform-origin: 414.265px 278.995px;" id="elbinpoht3uq6"
         class="animable"></path>
      <polygon
         points="369.59 375.92 369.59 404.4 411.24 404.4 457.18 404.4 457.18 375.92 369.59 375.92"
         style="fill: rgb(235, 235, 235); transform-origin: 413.385px 390.16px;" id="elpqlinql8y6t"
         class="animable"></polygon>
      <polygon
         points="365.91 367.96 365.91 375.92 460.24 375.92 460.24 367.96 411.24 367.96 365.91 367.96"
         style="fill: rgb(235, 235, 235); transform-origin: 413.075px 371.94px;" id="elxzzicqg1bgh"
         class="animable"></polygon>
      <polygon
         points="413.07 404.4 457.18 404.4 457.18 375.92 460.24 375.92 460.24 367.96 411.24 367.96 411.24 375.19 413.07 404.4"
         style="fill: rgb(235, 235, 235); transform-origin: 435.74px 386.18px;" id="elu6jhxwa931n"
         class="animable"></polygon>
      <rect x="381.84" y="380.51" width="17.76" height="4.29"
         style="fill: rgb(255, 255, 255); transform-origin: 390.72px 382.655px;" id="el6qr0n4115kc"
         class="animable"></rect>
      <rect x="379.55" y="390.16" width="22.81" height="9.05"
         style="fill: rgb(255, 255, 255); transform-origin: 390.955px 394.685px;" id="el59thfouzp6d"
         class="animable"></rect>
      <path
         d="M461,375.84c0,.24-21.18.44-47.3.44s-47.3-.2-47.3-.44,21.17-.43,47.3-.43S461,375.6,461,375.84Z"
         style="fill: rgb(224, 224, 224); transform-origin: 413.7px 375.845px;" id="el0gjd6jeebc2h"
         class="animable"></path>
      <path
         d="M414.26,404.3c-.24,0-.44-6.32-.44-14.11s.2-14.1.44-14.1.43,6.31.43,14.1S414.5,404.3,414.26,404.3Z"
         style="fill: rgb(224, 224, 224); transform-origin: 414.255px 390.195px;" id="elhqx3lfqtq29"
         class="animable"></path>
      <polygon
         points="377.68 234.25 377.68 256.77 410.6 256.77 446.92 256.77 446.92 234.25 377.68 234.25"
         style="fill: rgb(235, 235, 235); transform-origin: 412.3px 245.51px;" id="elj3c93mm47p"
         class="animable"></polygon>
      <polygon
         points="374.77 227.96 374.77 234.25 449.34 234.25 449.34 227.96 410.6 227.96 374.77 227.96"
         style="fill: rgb(235, 235, 235); transform-origin: 412.055px 231.105px;" id="elzivss8gtmv"
         class="animable"></polygon>
      <polygon
         points="412.06 256.77 446.92 256.77 446.92 234.25 449.34 234.25 449.34 227.96 410.6 227.96 410.6 233.67 412.06 256.77"
         style="fill: rgb(235, 235, 235); transform-origin: 429.97px 242.365px;" id="elznxd22h9lqr"
         class="animable"></polygon>
      <rect x="387.36" y="237.88" width="14.04" height="3.39"
         style="fill: rgb(255, 255, 255); transform-origin: 394.38px 239.575px;" id="el4idfyzbguep"
         class="animable"></rect>
      <rect x="385.55" y="245.51" width="18.03" height="7.16"
         style="fill: rgb(255, 255, 255); transform-origin: 394.565px 249.09px;" id="elhq1rs606be5"
         class="animable"></rect>
      <path
         d="M449.9,234.19c0,.24-16.74.43-37.39.43s-37.4-.19-37.4-.43,16.74-.44,37.4-.44S449.9,234,449.9,234.19Z"
         style="fill: rgb(224, 224, 224); transform-origin: 412.505px 234.185px;" id="elsesl5v2vo8o"
         class="animable"></path>
      <path
         d="M413,256.68c-.24,0-.44-5-.44-11.15s.2-11.15.44-11.15.43,5,.43,11.15S413.23,256.68,413,256.68Z"
         style="fill: rgb(224, 224, 224); transform-origin: 412.995px 245.53px;" id="el02z2w01n407n"
         class="animable"></path>
      <path
         d="M449.7,256.57c0,.24-16.12.44-36,.44s-36-.2-36-.44,16.11-.43,36-.43S449.7,256.33,449.7,256.57Z"
         style="fill: rgb(224, 224, 224); transform-origin: 413.7px 256.575px;" id="el2oyni3ygzqn"
         class="animable"></path>
      <polygon points="404.39 184.98 399.33 184.27 399.33 163.97 404.39 164.68 404.39 184.98"
         style="fill: rgb(224, 224, 224); transform-origin: 401.86px 174.475px;" id="elj79grcva45e"
         class="animable"></polygon>
      <path
         d="M402.21,165.26c-27.63,0-50.11-22.24-50.11-49.58a49.55,49.55,0,0,1,25.81-43.36l.56-.31,3.35,4.64-1.17.84-2.6-3.61a48.12,48.12,0,0,0-24.51,41.8c0,26.55,21.83,48.15,48.67,48.15a49.13,49.13,0,0,0,30.56-10.67l-2-2,1-1,3.16,3.12-.61.51C423,163.08,414.33,165.26,402.21,165.26Z"
         style="fill: rgb(224, 224, 224); transform-origin: 393.515px 118.635px;" id="el8uwh9zr914f"
         class="animable"></path>
      <rect x="379.19" y="184.27" width="44.39" height="3.43"
         style="fill: rgb(224, 224, 224); transform-origin: 401.385px 185.985px;" id="elbqxesa7usyl"
         class="animable"></rect>
      <ellipse cx="404.38" cy="115.14" rx="44.09" ry="44.39"
         style="fill: rgb(245, 245, 245); transform-origin: 404.38px 115.14px;" id="elimv5elnklfk"
         class="animable"></ellipse>
      <path
         d="M388.06,134.92c.23-1.93,1.73-3.89.87-5.63-1-1.95-3.8-1.64-5.78-2.51-2.78-1.22-3.64-4.66-5.45-7.1-1.63-2.18-5.42-4.57-8.31-3.91a3.52,3.52,0,0,0-3,3.26l-.26,0c-.78-.08-1.68-.12-2.11-.76s0-1.86-.51-2.59a4,4,0,0,0-1.11-.82c-.37-.27-.69-.77-.46-1.18s.67-.41.92-.72a.71.71,0,0,0,0-.87c-.79-1-1.68,1-2.12,1.43a3.46,3.46,0,0,1-.35.33h0a1.94,1.94,0,0,0,0,.24c0,.26,0,.53,0,.8s0,.53,0,.79,0,.43,0,.65,0,.43,0,.64a7.46,7.46,0,0,1,1.36.67c.85.5,1.81,1.15,1.87,2.14a.75.75,0,0,0,.09.47.61.61,0,0,0,.41.21,12,12,0,0,0,2.24.31c0,.89.07,1.82.06,2.7a30.54,30.54,0,0,0-.3,3.8c.2,1.78,1.44,3.25,2.52,4.69,4.12,5.49,6.34,11.8,8.74,18.25h0c.45.36,1.09.83,1.55,1.16s.69.49,1.07.74.7.46,1.08.7.32.22.59.38c0-.08,0,0,0,0-1-2.12-1-5.07,1.11-6.12a4.94,4.94,0,0,0,1.18-.63c.93-.87.17-2.69,1.1-3.57.52-.48,1.34-.45,2-.74,1.17-.54,1.55-2,1.46-3.32A19.7,19.7,0,0,1,388.06,134.92Z"
         style="fill: rgb(224, 224, 224); transform-origin: 374.79px 132.502px;" id="eli9pxvk97ueh"
         class="animable"></path>
      <path
         d="M363,102.43a2,2,0,0,1,2.88.09,3,3,0,0,1,.23,2.26c-.16,1-.32,2.06-.49,3.09a1.63,1.63,0,0,0,.05.93c.3.66,1.38.53,1.79-.06a2.83,2.83,0,0,0,.26-2.09,4,4,0,0,1,0-2.15c.7-1.66,3.17-1.41,4.61-2.49a7.86,7.86,0,0,0,1.82-2.77,3.07,3.07,0,0,1,2.53-1.92c.38,0,.75.15,1.12.14a1.5,1.5,0,0,0,1-2.43,2.89,2.89,0,0,1-.49-.5.91.91,0,0,1,.35-1.1,2.6,2.6,0,0,1,1.17-.37l2.82-.45c1-.16,2.38-.7,2.23-1.74s-1.35-1.3-1.53-2.19a2.85,2.85,0,0,0-.12-.66c-.28-.57-1.14-.34-1.69,0a1.37,1.37,0,0,0-2.07-.67c-.56.46-.63,1.27-.83,2a9.46,9.46,0,0,1-3.06,4.13,2.5,2.5,0,0,1-1.48.83c-.58,0-1.19-.59-.93-1.1.19-.35.69-.55.64-.94s-.92-.45-1.09-.92c.34-1.38,1.92-2,3.13-2.69a7.65,7.65,0,0,0,3.21-3.94,1,1,0,0,0,0-.81c-.18-.35-.65-.4-1.05-.4-.93,0-2.1.11-2.44,1a10.45,10.45,0,0,0-.16,1.49c-.33,1.45-2.32,1.61-3.53,2.47a9.29,9.29,0,0,1-1.37,1.06,4.8,4.8,0,0,1-1.85.3c-.11,0-.4,0-.51,0-.38.53-.69,1-1,1.57s-.72,1.17-1.05,1.74a43.27,43.27,0,0,0-3.74,8.55c-.35,1-.64,2.17-.9,3.25s-.45,2.09-.63,3.2a12.14,12.14,0,0,0,.79-2.78A5.15,5.15,0,0,1,363,102.43Z"
         style="fill: rgb(224, 224, 224); transform-origin: 372.861px 96.3757px;" id="elhnnhn8w2s9u"
         class="animable"></path>
      <path
         d="M400.08,82.49c.42-.55.3-1.33.57-2,.44-1,1.84-1.43,2.32-2.46.19-.4.23-.89.56-1.18s.67-.3,1-.52a1.34,1.34,0,0,0-.31-2.07c-1.73-1.11-4.91.17-6.4,1.25-1.92,1.39-3.8,3.06-6.36,2.9a5.07,5.07,0,0,0-2.09,0c-.66.25-1.07,1.24-.5,1.66.31.23.76.17,1.12.33a1.42,1.42,0,0,1,.4,1.91c-.32.65-.9,1.14-1.28,1.76a3.26,3.26,0,0,0-.47,2,1.82,1.82,0,0,0,.59,1.29c.8.64,2,.1,2.68-.67s1.14-1.75,2-2.27a5.13,5.13,0,0,1,1.44-.5l3.33-.79A2.39,2.39,0,0,0,400.08,82.49Z"
         style="fill: rgb(224, 224, 224); transform-origin: 396.743px 80.738px;" id="el5c9blm3ffmo"
         class="animable"></path>
      <path
         d="M448.46,114.8c0-.64,0-1.26,0-1.89s-.06-1.26-.12-1.88-.1-1-.17-1.5-.13-1.13-.22-1.64a40.74,40.74,0,0,0-1-4.44c-.17-.57-.44-1.19-.63-1.75s-.38-1.13-.59-1.69h0c-.23-.42-.46-.83-.72-1.24-2.45-3.88-6-6.92-8.7-10.63-.88-1.21-1.56-2.2-3.12-2.44-2.3-.36-3.46,1-5.1-1.23-.43-.58-1.2-1.13-1.85-.78l.51,1.41a.65.65,0,0,1,0,.31c0,.32-.52.41-.8.23a2.74,2.74,0,0,1-.61-.78,2.26,2.26,0,0,0-3.31-.28,1.27,1.27,0,0,0-.74-1,1.51,1.51,0,0,1-1.89,1.22c-.14-.42.62-.5.89-.86s-.05-.82-.36-1.11a4.83,4.83,0,0,0-3-1.17,4.28,4.28,0,0,1-2.08-.25c-.35-.21-.6-.56-1-.76a2.69,2.69,0,0,0-2.52.4,4.94,4.94,0,0,0-2.55,2.5c-.38,1.16.46,2.73,1.68,2.58a2.42,2.42,0,0,1,.92-.1,1.13,1.13,0,0,1,.67,1.07,3,3,0,0,0,.2,1.3c.21.39.84.59,1.09.22a2.43,2.43,0,0,0,.35-2.24,3,3,0,0,1,.16-2.28c.47-.63,1.8-.43,1.71.35-.06.46-.58.8-.56,1.27s.6.72,1.07.7a5.25,5.25,0,0,1,1.42-.07c.46.11.83.72.5,1.06-.58.66-2.09-.47-2.39.35a2.5,2.5,0,0,0,0,.67c-.05.68-.91.93-1.59,1a3.86,3.86,0,0,1-2-.15,1.28,1.28,0,0,1-.69-1.69.77.77,0,0,0-1.07.39,2.27,2.27,0,0,0-.08,1.27c-.72-.16-1.37.45-1.78,1.06s-.82,1.32-1.52,1.54-1.69-.08-2.06.56c-.48.84.91,1.9.42,2.73-.28.47-.95.45-1.48.6a2.28,2.28,0,0,0-.93,3.54,2.74,2.74,0,0,0,3.88,0,12.58,12.58,0,0,0,1.5-2.6c.51-.85,1.47-1.64,2.43-1.36a3.08,3.08,0,0,1,1,.63l1.4,1.18c.3.25.63.57.6,1s-.27.55-.38.85c-.29.84.93,1.64,1.7,1.18a1.69,1.69,0,0,0,.33-2.36c-.73-1-2.37-1.51-2.33-2.75.84-.68,2.16,0,2.65,1s.5,2.11.91,3.11S418,101,419,100.5l-.75-2.58c.61-.46,1.32.88,2.05.66.45-.14.5-.79.31-1.22A5.67,5.67,0,0,1,420,96.1a1.43,1.43,0,0,1,1.66-1.47,2.17,2.17,0,0,1,1.64,1.8,3.65,3.65,0,0,0,.22,1c.32.67,1.15.88,1.83,1.16s1.41,1,1.12,1.65c-.13.3-.45.58-.33.89s.5.39.5.68-.2.33-.39.41c-.46.19-1,.25-1.4.47a1.26,1.26,0,0,0-.82,1.13c.05.69.88,1,1.28,1.61a8.43,8.43,0,0,1,.55,1.91,7.22,7.22,0,0,0,1.06,1.53c1.15,1.57,1.43,3.6,2,5.47.25.85.71,1.79,1.58,2a2.71,2.71,0,0,0,1.39-.27,8.47,8.47,0,0,0,3.42-2,2.88,2.88,0,0,0,.27-3.67.69.69,0,0,0-.42-.27,1.25,1.25,0,0,0-.66.23,1.86,1.86,0,0,1-1.94-.42,5.31,5.31,0,0,1-1.16-1.74c-.34-.69-.69-1.38-1-2.08a1.22,1.22,0,0,1,1.49.14,7.73,7.73,0,0,1,1,1.25,6.49,6.49,0,0,0,4.4,2.07,4,4,0,0,1,1.24.26c1.23.56,1.59,2.38,2.89,2.77a7.8,7.8,0,0,1,1.11.25,2,2,0,0,1,.93,1.38,21.62,21.62,0,0,0,.82,3.09,2.83,2.83,0,0,0,2.35,1.87,2.41,2.41,0,0,0,1.75-.76c.05-1,.12-2,.12-2.93C448.48,115.2,448.48,115,448.46,114.8Z"
         style="fill: rgb(224, 224, 224); transform-origin: 425.41px 99.8495px;" id="elqy9h1iviy7"
         class="animable"></path>
      <path
         d="M430.62,133.09c-.65.13-.78.52-1.14,1s-1.13,1.26-1.55,1.89c-.72,1.06-.07,2.71-1,3.6a7.37,7.37,0,0,0-.61.5,1.11,1.11,0,0,0,.22,1.54,1.52,1.52,0,0,0,1.65,0,2.39,2.39,0,0,0,1-1.37,2.39,2.39,0,0,1,.51-1.13c.54-.47,1.38-.12,2.09-.22C434.79,138.51,433.5,132.53,430.62,133.09Z"
         style="fill: rgb(224, 224, 224); transform-origin: 429.804px 137.458px;" id="elf706yrmqgpb"
         class="animable"></path>
      <path
         d="M431.65,124.77c1.74-1.5,2.44-4.9.28-5.69-.82-.3-1.76-.06-2.57-.37-1.06-.41-1.56-1.6-1.94-2.67-1-2.81-2-5.61-3-8.42-.61-1.69-1.53-3.65-3.3-3.9a9.74,9.74,0,0,0-3,.52c-3.44.63-9.24-7.7-11.86-2.09-.36-1.53-2.84-1-3.63.4s-1,3.15-2.22,4.09c-1,.71-2.36.76-3.14,1.66a4.08,4.08,0,0,0-.72,2.38c-.13,1.6-.26,3.21-.4,4.81a6.61,6.61,0,0,0,.45,3.8c.64,1.13,2.31,1.76,3.27.89a10.7,10.7,0,0,0,1-1.49,2.49,2.49,0,0,1,2.57-.89,4.41,4.41,0,0,1,2,1.38c4.48,4.83,6.09,11.7,6.29,18.29a10.16,10.16,0,0,0,.48,3.56c.52,1.32,1.61,2.38,1.94,3.76.24,1.05,0,2.22.46,3.2.84,1.82,3.63,1.89,5.14.59s2.05-3.4,2.36-5.37.5-4.06,1.61-5.72a20.3,20.3,0,0,0,2.17-3c.67-1.59.18-3.49.8-5.11C427.47,127.23,429.91,126.28,431.65,124.77Z"
         style="fill: rgb(224, 224, 224); transform-origin: 414.662px 124.833px;" id="elwe5zuzsq68g"
         class="animable"></path>
      <rect x="21.83" y="39.91" width="165.33" height="261.28"
         style="fill: rgb(224, 224, 224); transform-origin: 104.495px 170.55px;" id="elgbrljxs5mpo"
         class="animable"></rect>
      <rect x="26.28" y="44.82" width="155.86" height="252.08"
         style="fill: rgb(245, 245, 245); transform-origin: 104.21px 170.86px;" id="el1q8qwlxepas"
         class="animable"></rect>
      <rect x="104.22" y="59.5" width="62.15" height="96.44"
         style="fill: rgb(255, 255, 255); transform-origin: 135.295px 107.72px;" id="elwlqn7p8lijc"
         class="animable"></rect>
      <path d="M138.6,68a2.32,2.32,0,1,1-2.32-2.32A2.32,2.32,0,0,1,138.6,68Z"
         style="fill: rgb(224, 224, 224); transform-origin: 136.28px 68px;" id="elgr9l4tl03zv"
         class="animable"></path>
      <rect x="41.58" y="182.78" width="62.15" height="96.44"
         style="fill: rgb(255, 255, 255); transform-origin: 72.655px 231px;" id="elsl9gkoblx5s"
         class="animable"></rect>
      <path d="M76,191.31A2.32,2.32,0,1,1,73.64,189,2.32,2.32,0,0,1,76,191.31Z"
         style="fill: rgb(224, 224, 224); transform-origin: 73.68px 191.32px;" id="elrvqk3et5xrf"
         class="animable"></path>
      <rect x="40.74" y="59.5" width="53.08" height="75.31"
         style="fill: rgb(255, 255, 255); transform-origin: 67.28px 97.155px;" id="eli6brobisohh"
         class="animable"></rect>
      <path d="M69.21,66.34a1.93,1.93,0,1,1-1.93-1.92A1.93,1.93,0,0,1,69.21,66.34Z"
         style="fill: rgb(224, 224, 224); transform-origin: 67.28px 66.35px;" id="el7rapqtkl8d4"
         class="animable"></path>
      <g id="elx1gvcp0rss">
         <rect x="113.24" y="187.21" width="57.12" height="31.65"
            style="fill: rgb(255, 255, 255); transform-origin: 141.8px 203.035px; transform: rotate(-6.44deg);"
            class="animable"></rect>
      </g>
      <path d="M142.66,193.27a2,2,0,1,1-2-2A2,2,0,0,1,142.66,193.27Z"
         style="fill: rgb(224, 224, 224); transform-origin: 140.66px 193.27px;" id="eledrv6wc560o"
         class="animable"></path>
      <path
         d="M95.44,204.78c0,.25-9.76.46-21.8.46s-21.79-.21-21.79-.46,9.75-.46,21.79-.46S95.44,204.52,95.44,204.78Z"
         style="fill: rgb(224, 224, 224); transform-origin: 73.645px 204.78px;" id="el09v4xhiiiqf"
         class="animable"></path>
      <path
         d="M95.44,211.68c0,.25-9.76.46-21.8.46s-21.79-.21-21.79-.46,9.75-.46,21.79-.46S95.44,211.42,95.44,211.68Z"
         style="fill: rgb(224, 224, 224); transform-origin: 73.645px 211.68px;" id="eleg3gn1mwcfl"
         class="animable"></path>
      <path
         d="M95.44,218.58c0,.25-9.76.46-21.8.46s-21.79-.21-21.79-.46,9.75-.46,21.79-.46S95.44,218.32,95.44,218.58Z"
         style="fill: rgb(224, 224, 224); transform-origin: 73.645px 218.58px;" id="eloo147sn1vbf"
         class="animable"></path>
      <path
         d="M95.44,225.48c0,.25-9.76.46-21.8.46s-21.79-.21-21.79-.46S61.6,225,73.64,225,95.44,225.22,95.44,225.48Z"
         style="fill: rgb(224, 224, 224); transform-origin: 73.645px 225.47px;" id="elkfgbwhu6sqk"
         class="animable"></path>
      <path
         d="M95.44,232.38c0,.25-9.76.46-21.8.46s-21.79-.21-21.79-.46,9.75-.46,21.79-.46S95.44,232.12,95.44,232.38Z"
         style="fill: rgb(224, 224, 224); transform-origin: 73.645px 232.38px;" id="elj8ut3ygg5hn"
         class="animable"></path>
      <path
         d="M95.44,239.28c0,.25-9.76.46-21.8.46s-21.79-.21-21.79-.46,9.75-.46,21.79-.46S95.44,239,95.44,239.28Z"
         style="fill: rgb(224, 224, 224); transform-origin: 73.645px 239.28px;" id="elj2crzke1sr"
         class="animable"></path>
      <path
         d="M95.44,246.18c0,.25-9.76.46-21.8.46s-21.79-.21-21.79-.46,9.75-.46,21.79-.46S95.44,245.92,95.44,246.18Z"
         style="fill: rgb(224, 224, 224); transform-origin: 73.645px 246.18px;" id="eltf8nhu5n6g9"
         class="animable"></path>
      <path
         d="M163.09,197.39c0,.25-9.6,1.82-21.52,3.5s-21.61,2.84-21.65,2.59,9.6-1.82,21.52-3.51S163.05,197.13,163.09,197.39Z"
         style="fill: rgb(224, 224, 224); transform-origin: 141.505px 200.434px;" id="elhf0mrjajf36"
         class="animable"></path>
      <path
         d="M164,201.7c0,.26-9.59,1.83-21.51,3.51s-21.61,2.84-21.65,2.58,9.6-1.82,21.52-3.5S163.92,201.45,164,201.7Z"
         style="fill: rgb(224, 224, 224); transform-origin: 142.42px 204.746px;" id="elfj0y3j94j3d"
         class="animable"></path>
      <path
         d="M164.75,205.69c0,.25-9.6,1.82-21.52,3.5s-21.61,2.84-21.65,2.59,9.6-1.82,21.52-3.5S164.71,205.44,164.75,205.69Z"
         style="fill: rgb(224, 224, 224); transform-origin: 143.165px 208.735px;" id="el7qah7oqd6sk"
         class="animable"></path>
      <path
         d="M160.9,79.68c0,.25-11,.46-24.62.46s-24.63-.21-24.63-.46,11-.47,24.63-.47S160.9,79.42,160.9,79.68Z"
         style="fill: rgb(224, 224, 224); transform-origin: 136.275px 79.675px;" id="el73jq0wj831b"
         class="animable"></path>
      <path
         d="M160.9,83.78c0,.26-11,.46-24.62.46s-24.63-.2-24.63-.46,11-.46,24.63-.46S160.9,83.52,160.9,83.78Z"
         style="fill: rgb(224, 224, 224); transform-origin: 136.275px 83.78px;" id="elyy68i5qgmvg"
         class="animable"></path>
      <path
         d="M160.9,87.88c0,.26-11,.47-24.62.47s-24.63-.21-24.63-.47,11-.46,24.63-.46S160.9,87.63,160.9,87.88Z"
         style="fill: rgb(224, 224, 224); transform-origin: 136.275px 87.885px;" id="elqi4l61fo2"
         class="animable"></path>
      <path
         d="M160.9,92c0,.25-11,.46-24.62.46s-24.63-.21-24.63-.46,11-.47,24.63-.47S160.9,91.73,160.9,92Z"
         style="fill: rgb(224, 224, 224); transform-origin: 136.275px 91.995px;" id="el1jvmcaibafq"
         class="animable"></path>
      <path
         d="M160.9,96.09c0,.25-11,.46-24.62.46s-24.63-.21-24.63-.46,11-.47,24.63-.47S160.9,95.83,160.9,96.09Z"
         style="fill: rgb(224, 224, 224); transform-origin: 136.275px 96.085px;" id="elk4iuwfwbj3g"
         class="animable"></path>
      <path
         d="M160.9,100.19c0,.26-11,.46-24.62.46s-24.63-.2-24.63-.46,11-.46,24.63-.46S160.9,99.94,160.9,100.19Z"
         style="fill: rgb(224, 224, 224); transform-origin: 136.275px 100.19px;" id="elf2rccqkxze8"
         class="animable"></path>
      <path
         d="M160.9,104.29c0,.26-11,.47-24.62.47s-24.63-.21-24.63-.47,11-.46,24.63-.46S160.9,104,160.9,104.29Z"
         style="fill: rgb(224, 224, 224); transform-origin: 136.275px 104.295px;" id="el1w4srw1bsa5"
         class="animable"></path>
      <path
         d="M160.9,116.47c0,.25-11,.46-24.62.46s-24.63-.21-24.63-.46,11-.46,24.63-.46S160.9,116.21,160.9,116.47Z"
         style="fill: rgb(224, 224, 224); transform-origin: 136.275px 116.47px;" id="el7zzx1qozh8p"
         class="animable"></path>
      <path
         d="M161.25,120.8c0,.26-11,.46-24.63.46s-24.62-.2-24.62-.46,11-.46,24.62-.46S161.25,120.55,161.25,120.8Z"
         style="fill: rgb(224, 224, 224); transform-origin: 136.625px 120.8px;" id="el938bex4wa38"
         class="animable"></path>
      <path
         d="M161.59,125.13c0,.26-11,.47-24.62.47s-24.62-.21-24.62-.47,11-.46,24.62-.46S161.59,124.88,161.59,125.13Z"
         style="fill: rgb(224, 224, 224); transform-origin: 136.97px 125.135px;" id="elxhtrwqcwcpm"
         class="animable"></path>
      <path
         d="M161.94,129.47c0,.25-11,.46-24.62.46s-24.63-.21-24.63-.46,11-.46,24.63-.46S161.94,129.21,161.94,129.47Z"
         style="fill: rgb(224, 224, 224); transform-origin: 137.315px 129.47px;" id="el7363ie6k3e8"
         class="animable"></path>
      <path
         d="M162.29,133.8c0,.26-11,.46-24.63.46s-24.62-.2-24.62-.46,11-.46,24.62-.46S162.29,133.55,162.29,133.8Z"
         style="fill: rgb(224, 224, 224); transform-origin: 137.665px 133.8px;" id="elygel61hunfp"
         class="animable"></path>
      <path
         d="M162.63,138.13c0,.26-11,.47-24.62.47s-24.62-.21-24.62-.47,11-.46,24.62-.46S162.63,137.88,162.63,138.13Z"
         style="fill: rgb(224, 224, 224); transform-origin: 138.01px 138.135px;" id="elqobrmse433"
         class="animable"></path>
   </g>
   <g id="freepik--Table--inject-83" class="animable" style="transform-origin: 250px 417.245px;">
      <path
         d="M480.46,417.23c0,.14-103.19.26-230.45.26s-230.47-.12-230.47-.26S122.7,417,250,417,480.46,417.08,480.46,417.23Z"
         style="fill: rgb(38, 50, 56); transform-origin: 250px 417.245px;" id="el5nr0wj2ewgk"
         class="animable"></path>
   </g>
   <g id="freepik--speech-bubble--inject-83" class="animable"
      style="transform-origin: 118.708px 165.38px;">
      <g id="el8s0knw8knnl">
         <circle cx="114.37" cy="165.38" r="36.36"
            style="fill: rgb(255, 255, 255); transform-origin: 114.37px 165.38px; transform: rotate(-84.67deg);"
            class="animable"></circle>
      </g>
      <path
         d="M154.64,178.23s-.25.31-.57.93a4.9,4.9,0,0,0-.43,2.87,4.5,4.5,0,0,0,.71,1.86,4,4,0,0,0,1.76,1.43,4.36,4.36,0,0,0,5.86-5.7,4,4,0,0,0-1.38-1.79,4.6,4.6,0,0,0-1.85-.77,4.9,4.9,0,0,0-2.87.35c-.64.3-.92.58-1,.55a.92.92,0,0,1,.21-.2,1.33,1.33,0,0,1,.27-.22,2.22,2.22,0,0,1,.41-.24,4.74,4.74,0,0,1,3-.48,4.87,4.87,0,0,1,2,.78,4.21,4.21,0,0,1,1.51,1.91,5,5,0,0,1,.29,2.66,4.38,4.38,0,0,1-3.9,3.8,4.93,4.93,0,0,1-2.66-.36,4.26,4.26,0,0,1-1.87-1.56,4.91,4.91,0,0,1-.72-2,4.77,4.77,0,0,1,.55-3,4,4,0,0,1,.26-.4c.08-.11.16-.2.22-.27A1.81,1.81,0,0,1,154.64,178.23Z"
         style="fill: rgb(38, 50, 56); transform-origin: 157.993px 181.386px;" id="elqd8mnzpdk1p"
         class="animable"></path>
      <path
         d="M143.91,143.64s-.14-.15-.39-.45l-1.12-1.34-.81-1c-.32-.35-.7-.7-1.1-1.09s-.82-.82-1.28-1.27a6,6,0,0,0-.74-.67l-.83-.66a34.8,34.8,0,0,0-9-5.43A36.39,36.39,0,0,0,115,128.89h-2c-.66,0-1.33.12-2,.17l-1,.09a7.28,7.28,0,0,0-1,.14l-2.06.39c-.35.07-.7.12-1,.2l-1,.3-2.1.62c-.7.23-1.37.54-2.07.81l-1,.42-.52.22-.5.26a34.68,34.68,0,0,0-4,2.31c-.64.44-1.33.85-2,1.33l-1.87,1.53c-.31.27-.64.51-.94.79l-.87.87c-.57.59-1.18,1.16-1.74,1.78a38.85,38.85,0,0,0-3.07,4l-.71,1.07c-.12.18-.24.36-.35.54l-.31.58-1.22,2.31c-.37.79-.68,1.62-1,2.44-.16.41-.36.81-.49,1.24l-.39,1.28a40.15,40.15,0,0,0-1.24,5.28c-.1.91-.19,1.83-.29,2.75l-.07.69c0,.23,0,.46,0,.69v2.8l.12,1.4.13,1.4.06.71c0,.23.09.46.13.7.17.93.35,1.86.53,2.8s.53,1.84.8,2.76A36,36,0,0,0,93.4,195.11l2.4,1.59L98.32,198l.63.33.65.27,1.31.54,1.3.53,1.34.41,1.34.4.66.2.68.14,2.7.54a41.39,41.39,0,0,0,5.42.38h1.34c.45,0,.89-.07,1.33-.09.88-.09,1.77-.14,2.63-.26l2.57-.48.64-.12.63-.18,1.23-.36a37.38,37.38,0,0,0,4.76-1.73c.76-.35,1.48-.76,2.22-1.14l1.09-.57c.35-.19.68-.44,1-.66l2-1.33c.65-.46,1.24-1,1.86-1.48a34.25,34.25,0,0,0,3.4-3.17l.4-.4c.13-.14.24-.29.37-.44l.71-.87c.46-.59,1-1.14,1.39-1.74l1.21-1.82c.2-.3.4-.6.59-.9l.51-.93,1-1.86a6.69,6.69,0,0,0,.44-.94l.39-.94c.25-.63.52-1.25.75-1.87s.39-1.26.58-1.88a36.31,36.31,0,0,0,1.32-13.85c0-.51-.08-1-.13-1.51l-.27-1.44c-.09-.47-.17-.93-.26-1.39,0-.22-.07-.45-.13-.67s-.12-.43-.19-.64c-.24-.85-.48-1.66-.7-2.43s-.57-1.47-.82-2.15l-.4-1a6.29,6.29,0,0,0-.41-.91c-.29-.57-.57-1.11-.83-1.6s-.48-1-.72-1.37l-.7-1.07-.95-1.47-.31-.5.34.48,1,1.45.71,1.07c.25.4.47.87.74,1.36s.55,1,.85,1.6a6.32,6.32,0,0,1,.42.91l.4,1c.26.68.59,1.38.84,2.15l.72,2.44c.06.21.13.43.19.65s.09.44.14.67c.08.45.17.92.26,1.39s.18,1,.28,1.45.09,1,.14,1.52a36.68,36.68,0,0,1-1.28,13.93q-.28.93-.57,1.89c-.23.63-.51,1.25-.76,1.88l-.39,1a8,8,0,0,1-.43.94l-1,1.87c-.17.32-.33.64-.51,1l-.6.91-1.21,1.83c-.43.61-.93,1.16-1.4,1.76l-.71.88c-.13.14-.24.3-.37.44l-.41.41a34.55,34.55,0,0,1-3.41,3.19c-.62.5-1.22,1-1.88,1.5l-2,1.35c-.34.22-.67.46-1,.66l-1.1.58c-.74.38-1.47.79-2.23,1.15a38.61,38.61,0,0,1-4.8,1.75l-1.25.37-.62.18-.65.12-2.59.49c-.88.12-1.77.17-2.66.26-.44,0-.89.1-1.34.09h-1.35a40.29,40.29,0,0,1-5.46-.37l-2.73-.55-.69-.14-.67-.2-1.35-.41-1.35-.4-1.32-.54-1.31-.54-.67-.27-.63-.34L95.62,197l-2.42-1.61a36.4,36.4,0,0,1-13.76-18.69q-.41-1.41-.81-2.79c-.18-1-.36-1.89-.53-2.83,0-.24-.09-.47-.13-.71l-.06-.71-.13-1.42-.12-1.41V164c0-.24,0-.47,0-.7l.07-.7c.1-.93.2-1.85.29-2.77a42.47,42.47,0,0,1,1.26-5.32l.4-1.3c.12-.43.33-.83.49-1.25.35-.82.66-1.66,1-2.46l1.24-2.33.31-.58c.11-.18.24-.36.35-.54l.72-1.09A41.78,41.78,0,0,1,87,140.9c.57-.62,1.18-1.19,1.76-1.79l.88-.87c.3-.29.63-.53.94-.79l1.89-1.54c.64-.49,1.33-.9,2-1.35a34.31,34.31,0,0,1,4.06-2.31L99,132c.17-.08.36-.14.53-.21l1.06-.43c.7-.27,1.38-.58,2.09-.81l2.11-.61,1-.31,1.06-.2L109,129a8.78,8.78,0,0,1,1-.13l1-.09c.69-.05,1.36-.13,2-.16h2a36.6,36.6,0,0,1,13.68,2.91,34.63,34.63,0,0,1,9,5.51l.82.67a6,6,0,0,1,.74.67l1.28,1.29c.39.4.77.75,1.08,1.11s.57.7.81,1l1.09,1.36Z"
         style="fill: rgb(38, 50, 56); transform-origin: 114.382px 165.385px;" id="elpwaklwhl11h"
         class="animable"></path>
      <path
         d="M104.5,155.23h5.76a4.89,4.89,0,0,1,5-4.92,4.65,4.65,0,0,1,4.51,3,5.16,5.16,0,0,1-.41,4.67c-1,1.61-3.11,3.07-7,2.39v13h5.69v-7.61a11.11,11.11,0,0,0,8-10.86c0-8.42-7.55-10.38-10.79-10.38C112.81,144.47,104.39,145.07,104.5,155.23Z"
         style="fill: rgb(64, 123, 255); transform-origin: 115.275px 158.944px;" id="elqnamkt8ot5"
         class="animable"></path>
      <rect x="112.37" y="175.99" width="5.78" height="5.4"
         style="fill: rgb(64, 123, 255); transform-origin: 115.26px 178.69px;" id="eliaw814slwp"
         class="animable"></rect>
   </g>
   <g id="freepik--Clock--inject-83" class="animable" style="transform-origin: 279.39px 84.84px;">
      <g id="eljkoi6xsjl8">
         <circle cx="278.93" cy="85.27" r="43.26"
            style="fill: rgb(64, 123, 255); transform-origin: 278.93px 85.27px; transform: rotate(-85.4261deg);"
            class="animable"></circle>
      </g>
      <g id="el5heusu8yd45">
         <circle cx="279.39" cy="84.84" r="39.15"
            style="fill: rgb(250, 250, 250); transform-origin: 279.39px 84.84px; transform: rotate(-45deg);"
            class="animable"></circle>
      </g>
      <path
         d="M239.84,82.49s0,.22,0,.64V85c0,.41,0,.88,0,1.38s.1,1.06.14,1.66.12,1.24.18,1.93.25,1.41.37,2.18a37.66,37.66,0,0,0,3.67,10.72,39,39,0,0,0,9.22,11.76L255,116c.57.43,1.17.83,1.77,1.25a21.63,21.63,0,0,0,1.83,1.23l2,1.11,1,.56,1.06.46,2.15,1c.73.3,1.5.51,2.26.77a20.17,20.17,0,0,0,2.33.69,37.63,37.63,0,0,0,4.91.9c.84.08,1.69.22,2.55.26l2.59,0c.44,0,.88,0,1.31,0l1.32-.11c.88-.09,1.77-.14,2.66-.26a41.42,41.42,0,0,0,5.31-1.19l1.33-.39c.22-.06.45-.12.67-.2l.64-.26,2.61-1c.85-.4,1.68-.86,2.53-1.3.42-.23.86-.42,1.26-.68l1.2-.79a43,43,0,0,0,4.69-3.47c.7-.69,1.41-1.37,2.13-2.06l.53-.52.49-.56,1-1.14,1-1.15.87-1.23.87-1.24.44-.63c.13-.21.25-.44.38-.66l1.51-2.67,1.25-2.82a42.07,42.07,0,0,0,2.83-12.2A41.88,41.88,0,0,0,317,75.17l-.87-3c-.38-.95-.76-1.9-1.15-2.84l-.28-.71-.36-.68-.7-1.34L313,65.3,312.13,64l-.82-1.26-.41-.62-.46-.59c-.62-.77-1.23-1.55-1.84-2.32a45.8,45.8,0,0,0-4.19-4.06l-1.09-.93c-.37-.32-.78-.56-1.16-.85-.79-.53-1.55-1.11-2.34-1.61l-2.45-1.38-.6-.35-.64-.28-1.26-.57a43.15,43.15,0,0,0-5.12-1.87c-.86-.24-1.74-.4-2.6-.6l-1.29-.28c-.43-.09-.87-.12-1.3-.17L282,46c-.86-.07-1.71,0-2.56-.07a37.25,37.25,0,0,0-5,.25,21,21,0,0,0-2.4.38c-.79.16-1.59.27-2.35.47l-2.25.66-1.12.32-1.06.42-2.1.85c-.69.26-1.32.66-2,1s-1.29.66-1.91,1l-1.78,1.15a39.2,39.2,0,0,0-10.68,10.46,37.54,37.54,0,0,0-5,10.14,19.22,19.22,0,0,0-.65,2.11c-.16.68-.3,1.31-.43,1.9s-.27,1.12-.36,1.62-.12,1-.17,1.37c-.1.81-.18,1.43-.23,1.86s-.1.63-.1.63,0-.22,0-.64.11-1,.2-1.86q.06-.61.15-1.38c.07-.5.21-1,.33-1.63s.26-1.23.41-1.91a21.64,21.64,0,0,1,.64-2.12,37,37,0,0,1,5-10.23,39.23,39.23,0,0,1,10.71-10.58L259.11,51c.62-.36,1.28-.68,1.92-1s1.3-.73,2-1l2.11-.85,1.07-.43,1.12-.33,2.28-.67c.77-.2,1.57-.31,2.36-.48a19.53,19.53,0,0,1,2.43-.39,36.14,36.14,0,0,1,5-.26c.86,0,1.72,0,2.59.06l2.6.31c.44,0,.88.08,1.31.16l1.31.29c.87.2,1.76.36,2.63.6A43.94,43.94,0,0,1,295,48.85l1.28.57c.21.1.43.18.64.29l.61.34,2.48,1.4c.8.51,1.57,1.08,2.36,1.63a14,14,0,0,1,1.17.85l1.11,1a44.19,44.19,0,0,1,4.24,4.1q.93,1.16,1.86,2.34l.47.59.42.63.82,1.27.83,1.27.71,1.35.71,1.37.36.68.29.71,1.16,2.88c.29,1,.59,2,.88,3a42.16,42.16,0,0,1,1.22,12.61A42,42,0,0,1,315.79,100l-1.26,2.86-1.53,2.7-.38.67-.44.63-.89,1.25-.88,1.25-1,1.15-1,1.15-.5.58-.54.52-2.15,2.08a45.3,45.3,0,0,1-4.74,3.51l-1.22.79c-.4.26-.85.46-1.27.69-.86.43-1.7.91-2.56,1.3l-2.64,1.06-.65.27-.67.2-1.34.39a41.36,41.36,0,0,1-5.37,1.19c-.9.12-1.8.17-2.69.25l-1.33.12c-.44,0-.89,0-1.33,0l-2.62,0c-.86,0-1.71-.18-2.56-.27a38.1,38.1,0,0,1-5-.92,21.15,21.15,0,0,1-2.35-.7c-.76-.27-1.54-.48-2.28-.78l-2.17-1-1.06-.47-1-.57-2-1.12c-.66-.36-1.24-.84-1.85-1.24s-1.2-.84-1.77-1.27l-1.62-1.39A39.16,39.16,0,0,1,244,103a37.58,37.58,0,0,1-3.62-10.8A21.06,21.06,0,0,1,240,90c-.05-.69-.11-1.34-.16-1.94s-.1-1.16-.11-1.66,0-1,0-1.39c0-.81,0-1.44.05-1.87S239.84,82.49,239.84,82.49Z"
         style="fill: rgb(38, 50, 56); transform-origin: 279.204px 85.0973px;" id="elqnlja8wq0j"
         class="animable"></path>
      <path
         d="M297.22,85.91a8.54,8.54,0,0,1-1.39.09l-3.83.08c-3.25,0-7.77.08-12.88.08h-.26v-2.8c0-5.71,0-10.87.08-14.61,0-1.8.06-3.29.08-4.43a9.15,9.15,0,0,1,.1-1.62,10.57,10.57,0,0,1,.1,1.62c0,1.14,0,2.63.08,4.43,0,3.74.07,8.9.07,14.61v2.55l-.25-.25c5.11,0,9.63,0,12.88.08l3.83.08A8.54,8.54,0,0,1,297.22,85.91Z"
         style="fill: rgb(38, 50, 56); transform-origin: 288.04px 74.43px;" id="el442y5rumosj"
         class="animable"></path>
      <path
         d="M279.24,51.79a11,11,0,0,1,.25,3.3,11.09,11.09,0,0,1-.25,3.31,10.88,10.88,0,0,1-.26-3.31A10.84,10.84,0,0,1,279.24,51.79Z"
         style="fill: rgb(38, 50, 56); transform-origin: 279.235px 55.095px;" id="el57em1h6ktiv"
         class="animable"></path>
      <path
         d="M297.18,57.1a10.74,10.74,0,0,1-2.12,2.49,10.74,10.74,0,0,1-2.49,2.12,10.64,10.64,0,0,1,2.13-2.49A10.58,10.58,0,0,1,297.18,57.1Z"
         style="fill: rgb(38, 50, 56); transform-origin: 294.875px 59.405px;" id="elfvzzkc6y0z"
         class="animable"></path>
      <path
         d="M307.67,68.56A13.26,13.26,0,0,1,305,70.37,14,14,0,0,1,302.1,72a14.73,14.73,0,0,1,5.57-3.39Z"
         style="fill: rgb(38, 50, 56); transform-origin: 304.885px 70.28px;" id="elvzy96kwrlv"
         class="animable"></path>
      <path d="M313.82,85.57a40.81,40.81,0,0,1-9,0,39.25,39.25,0,0,1,9,0Z"
         style="fill: rgb(38, 50, 56); transform-origin: 309.32px 85.565px;" id="elgcyqvyh9mzp"
         class="animable"></path>
      <path d="M251.27,85a36.42,36.42,0,0,1-8.52,0,35,35,0,0,1,8.52,0Z"
         style="fill: rgb(38, 50, 56); transform-origin: 247.01px 84.9949px;" id="elgj919skq08k"
         class="animable"></path>
      <path
         d="M255.69,97.63a18.3,18.3,0,0,1-3.22,2.92,18.17,18.17,0,0,1-3.53,2.52,18.45,18.45,0,0,1,3.21-2.92A18.79,18.79,0,0,1,255.69,97.63Z"
         style="fill: rgb(38, 50, 56); transform-origin: 252.315px 100.35px;" id="el90yd1olii9m"
         class="animable"></path>
      <path
         d="M266.61,107.42a28.19,28.19,0,0,1-2.19,3.8,29.49,29.49,0,0,1-2.33,3.72,14.38,14.38,0,0,1,1.89-4A14.3,14.3,0,0,1,266.61,107.42Z"
         style="fill: rgb(38, 50, 56); transform-origin: 264.35px 111.18px;" id="elf9bo15u7vwt"
         class="animable"></path>
      <path
         d="M279.24,120.05a20,20,0,0,1-.26-4.51,20,20,0,0,1,.26-4.51,20.42,20.42,0,0,1,.25,4.51A20.35,20.35,0,0,1,279.24,120.05Z"
         style="fill: rgb(38, 50, 56); transform-origin: 279.235px 115.54px;" id="elewcngco0s6r"
         class="animable"></path>
      <path
         d="M298.68,114A13.21,13.21,0,0,1,295,111.5a13.35,13.35,0,0,1-3-3.34,41.58,41.58,0,0,1,3.37,3A40.43,40.43,0,0,1,298.68,114Z"
         style="fill: rgb(38, 50, 56); transform-origin: 295.34px 111.08px;" id="elbhd6p1djz3c"
         class="animable"></path>
      <path
         d="M307.81,104.22a15.7,15.7,0,0,1-3-2.63,15.42,15.42,0,0,1-2.62-3,16.19,16.19,0,0,1,3,2.63A15.7,15.7,0,0,1,307.81,104.22Z"
         style="fill: rgb(38, 50, 56); transform-origin: 305px 101.405px;" id="elw0un4kqt4r"
         class="animable"></path>
      <path
         d="M255.28,72.84a12.06,12.06,0,0,1-2.64-2.28,12,12,0,0,1-2.27-2.63A12,12,0,0,1,253,70.2,12.06,12.06,0,0,1,255.28,72.84Z"
         style="fill: rgb(38, 50, 56); transform-origin: 252.825px 70.385px;" id="elduztcvuunfa"
         class="animable"></path>
      <path
         d="M266.54,61A11.39,11.39,0,0,1,264,58.75a11.44,11.44,0,0,1-2.23-2.58,11.71,11.71,0,0,1,2.59,2.22A11.69,11.69,0,0,1,266.54,61Z"
         style="fill: rgb(38, 50, 56); transform-origin: 264.155px 58.585px;" id="elf0ufjx538iw"
         class="animable"></path>
      <path
         d="M244.33,85.22a39.14,39.14,0,0,1,36.82-39.07c-.77,0-1.54-.08-2.32-.08a39.15,39.15,0,1,0,0,78.3c.78,0,1.55,0,2.32-.07A39.16,39.16,0,0,1,244.33,85.22Z"
         style="fill: rgb(224, 224, 224); transform-origin: 260.408px 85.22px;" id="el45pugpeakfd"
         class="animable"></path>
   </g>
   <g id="freepik--Sheets--inject-83" class="animable" style="transform-origin: 234.405px 446.99px;">
      <polygon points="244.53 435.19 170.4 434.28 205.71 474.36 294.25 474.36 244.53 435.19"
         style="fill: rgb(245, 245, 245); transform-origin: 232.325px 454.32px;" id="el29ucb9dtbmp"
         class="animable"></polygon>
      <polygon points="256.81 431.22 182.69 430.3 217.99 470.38 306.54 470.38 256.81 431.22"
         style="fill: rgb(235, 235, 235); transform-origin: 244.615px 450.34px;" id="el6lrkz6evs2"
         class="animable"></polygon>
      <polygon points="236.39 424.13 162.27 423.22 197.57 463.3 286.12 463.3 236.39 424.13"
         style="fill: rgb(235, 235, 235); transform-origin: 224.195px 443.26px;" id="elgyb3rd5aw1b"
         class="animable"></polygon>
      <polygon
         points="171.92 419.85 171.25 426.92 206.96 466.63 295.14 466.13 295.14 459.93 171.92 419.85"
         style="fill: rgb(224, 224, 224); transform-origin: 233.195px 443.24px;" id="elg6a3d53my0p"
         class="animable"></polygon>
      <polygon points="246.04 420.76 171.92 419.85 207.22 459.93 295.77 459.93 246.04 420.76"
         style="fill: rgb(255, 255, 255); transform-origin: 233.845px 439.89px;" id="el83r7i8yyr8"
         class="animable"></polygon>
      <path
         d="M246,420.76l.92.69,2.66,2.05,10.1,7.88,36.18,28.38a.21.21,0,0,1,0,.31.23.23,0,0,1-.17.08l-76.39,0H207.22a.22.22,0,0,1-.19-.09L171.75,420a.22.22,0,0,1,0-.32.22.22,0,0,1,.15-.06l53.69.76,15.1.25,4,.08,1,0,.34,0a2.37,2.37,0,0,1-.35,0h-5l-15.11-.13-53.63-.56.17-.38,35.32,40.06-.19-.09h12.16l76.39,0-.14.39-36-28.49-10-8-2.63-2.12C246.34,421,246,420.76,246,420.76Z"
         style="fill: rgb(38, 50, 56); transform-origin: 233.805px 439.885px;" id="elhw96616yeb"
         class="animable"></path>
      <path
         d="M271,450.34c0,.15-13.55.26-30.26.26s-30.27-.11-30.27-.26,13.55-.26,30.27-.26S271,450.2,271,450.34Z"
         style="fill: rgb(38, 50, 56); transform-origin: 240.735px 450.34px;" id="el7feh5peys5s"
         class="animable"></path>
      <path
         d="M265.13,446.66c0,.15-13.55.26-30.26.26s-30.27-.11-30.27-.26,13.55-.26,30.27-.26S265.13,446.52,265.13,446.66Z"
         style="fill: rgb(38, 50, 56); transform-origin: 234.865px 446.66px;" id="elnu09ju3uzkh"
         class="animable"></path>
      <path
         d="M261.93,442.65c0,.14-13.55.26-30.27.26s-30.27-.12-30.27-.26,13.55-.26,30.27-.26S261.93,442.5,261.93,442.65Z"
         style="fill: rgb(38, 50, 56); transform-origin: 231.66px 442.65px;" id="el7uvlf8mgtkl"
         class="animable"></path>
      <path
         d="M256.48,438.63c0,.14-13.55.26-30.26.26s-30.27-.12-30.27-.26,13.55-.26,30.27-.26S256.48,438.49,256.48,438.63Z"
         style="fill: rgb(38, 50, 56); transform-origin: 226.215px 438.63px;" id="el4ilj0trwy4"
         class="animable"></path>
      <path
         d="M252.25,434.28c0,.14-13.55.26-30.26.26s-30.27-.12-30.27-.26S205.27,434,222,434,252.25,434.14,252.25,434.28Z"
         style="fill: rgb(38, 50, 56); transform-origin: 221.985px 434.27px;" id="elw4blti664c"
         class="animable"></path>
      <path d="M207,466.63a12.23,12.23,0,0,1-.22-3.49,11.81,11.81,0,0,1,.31-3.49,24,24,0,0,1-.09,7Z"
         style="fill: rgb(38, 50, 56); transform-origin: 207.022px 463.15px;" id="elg1d8hwgxl8"
         class="animable"></path>
   </g>
   <g id="freepik--Character--inject-83" class="animable animator-active"
      style="transform-origin: 238.864px 229.613px;">
      <path
         d="M122.77,417.23V377a22.43,22.43,0,0,1,22.43-22.42h123A22.43,22.43,0,0,1,290.6,377L290,417.23Z"
         style="fill: rgb(69, 90, 100); transform-origin: 206.685px 385.905px;" id="elbr336vrn72e"
         class="animable"></path>
      <path d="M122.77,417.23h-9.11V383.17a4.56,4.56,0,0,1,4.56-4.56h0a4.56,4.56,0,0,1,4.55,4.56Z"
         style="fill: rgb(224, 224, 224); transform-origin: 118.215px 397.92px;" id="elzw0so639zv"
         class="animable"></path>
      <path
         d="M122.77,417.23s0-.09,0-.26l0-.71c0-.66,0-1.56,0-2.7,0-2.36,0-5.71-.09-9.83s0-9.05-.07-14.49c0-1.37,0-2.76,0-4.19,0-.7,0-1.45,0-2.14a4.23,4.23,0,0,0-.62-2,4.3,4.3,0,0,0-7.29-.09,4.43,4.43,0,0,0-.68,2.53v2.76c0,1.82,0,3.61,0,5.36,0,3.5,0,6.84,0,10,0,6.24-.06,11.63-.08,15.77l-.15-.16,6.67.09,1.8,0,.64,0a3.83,3.83,0,0,1-.58,0l-1.76,0-6.77.08h-.16v-.16c0-4.14,0-9.53-.07-15.77,0-3.13,0-6.47,0-10v-8.12a4.82,4.82,0,0,1,4.95-5,4.81,4.81,0,0,1,4,2.32,4.59,4.59,0,0,1,.69,2.21c0,.76,0,1.47,0,2.19,0,1.44,0,2.85,0,4.23,0,5.49-.05,10.43-.07,14.6s-.07,7.44-.09,9.8c0,1.11,0,2,0,2.63A5.43,5.43,0,0,1,122.77,417.23Z"
         style="fill: rgb(38, 50, 56); transform-origin: 118.378px 397.724px;" id="elsx0rautsq5e"
         class="animable"></path>
      <path d="M299.07,417.23H290V383.17a4.56,4.56,0,0,1,4.55-4.56h0a4.56,4.56,0,0,1,4.56,4.56Z"
         style="fill: rgb(224, 224, 224); transform-origin: 294.555px 397.92px;" id="elxvcvpzcjho9"
         class="animable"></path>
      <path d="M141.68,417.23l2.19-62.7s10.11-8.26,24.49,0l-10.73,62.7Z"
         style="fill: rgb(38, 50, 56); transform-origin: 155.02px 384.044px;" id="elz7z7smp19cq"
         class="animable"></path>
      <path d="M172.87,160.53l.24-53,27.4-5.24L206,153S191.72,176.91,172.87,160.53Z"
         style="fill: rgb(255, 191, 157); transform-origin: 189.435px 134.278px;" id="el8vmugl8018r"
         class="animable"></path>
      <path
         d="M173.14,108.46s-3-3.85-1.09-16.59,4.36-23.55,6.63-26.86l1.57-2.27s1.92-8.37,5.58-14.13,5.76-9.07,8.2-8.37,1.57,2.61.87,4.53-7.1,15.18-6.6,17.1,1.54.35,2.07-1.22,4.88-11.52,10.29-18,6.28-6.63,8.72-6.45,2,2.88,1.08,4.47l-2.8,5.19s7.48-11.31,11.84-9.7-1.4,8.06-1.4,8.06-5.4,7-7.5,10.64-5.41,9.94-5.41,9.94,9.25-9.42,11.69-11.16,8.38-10.12,12.21-6.63-15,20.22-17.61,25.2L208.86,76l-1.92,5.58a12.37,12.37,0,0,1,11-4.36c7.33.7,1.22,5.41-.7,7.15s-6.1,5.93-7.85,9.42-7.88,9.65-10.64,11.27-9.07,3.4-9.07,3.4Z"
         style="fill: rgb(255, 191, 157); transform-origin: 200.508px 72.2315px;" id="elnnlv3qvsegk"
         class="animable"></path>
      <path
         d="M206.91,69.54c-.07.06-.92-.84-2.53-2a20.77,20.77,0,0,0-3-1.79,24.39,24.39,0,0,0-4-1.49,23.93,23.93,0,0,0-4.18-.69,21.45,21.45,0,0,0-3.46.06c-2,.2-3.16.55-3.19.46a2.88,2.88,0,0,1,.82-.32,14.42,14.42,0,0,1,2.32-.51,19.26,19.26,0,0,1,3.53-.17,22.22,22.22,0,0,1,4.29.67,21.25,21.25,0,0,1,4,1.56,19.78,19.78,0,0,1,3,1.92,14.2,14.2,0,0,1,1.75,1.61C206.74,69.27,206.94,69.51,206.91,69.54Z"
         style="fill: rgb(255, 154, 108); transform-origin: 196.731px 66.3072px;" id="eljzp90zwmme"
         class="animable"></path>
      <path
         d="M208.31,45c.07,0-.68,1-1.75,2.63a67.91,67.91,0,0,0-3.75,6.62c-1.34,2.67-2.43,5.14-3.23,6.92A19.85,19.85,0,0,1,198.2,64a17.63,17.63,0,0,1,1-3c.72-1.82,1.76-4.33,3.1-7a47.66,47.66,0,0,1,3.92-6.59,23.29,23.29,0,0,1,1.44-1.83C208.07,45.14,208.28,44.92,208.31,45Z"
         style="fill: rgb(255, 154, 108); transform-origin: 203.257px 54.4919px;" id="elqw8vmsw6ijo"
         class="animable"></path>
      <path
         d="M208.58,79.39a10.23,10.23,0,0,1-1.16,1.41c-.86,1.06-1.79,2.18-2.8,3.41a10.72,10.72,0,0,1-1.8,1.72,5.21,5.21,0,0,1-1.89.79,5,5,0,0,1-1.85.16,9.46,9.46,0,0,1,1.76-.52,5.28,5.28,0,0,0,1.7-.82,12.6,12.6,0,0,0,1.69-1.67c1.1-1.3,2.11-2.52,2.92-3.32A4.76,4.76,0,0,1,208.58,79.39Z"
         style="fill: rgb(255, 154, 108); transform-origin: 203.83px 83.1476px;" id="elh4p5pb4paal"
         class="animable"></path>
      <path
         d="M335,225c.3-10.4,2.1-20.73,1.88-31.13s-2.79-21.27-9.92-28.85-23.39-13.27-30.14-1.89v6c2.68,40.15,1.56,80.9,4.24,121.05.35,5.28,4.55,10.11,6.87,14.87s7.06,8.71,12.34,8.48c6.91-.31,11.56-7.24,13.81-13.78C342.21,276,334.25,250,335,225Z"
         style="fill: rgb(38, 50, 56); transform-origin: 317.294px 235.117px;" id="elf4lxelv1nyk"
         class="animable"></path>
      <path
         d="M313.25,170.32a29.14,29.14,0,0,0-4-8c-1.85-2.33-4.63-4.13-7.61-4.08a4.11,4.11,0,0,0-3.6,1.79c-.68,1.22,0,3.13,1.4,3.26l.25.3c2.6,3.24,5.26,6.44,8,9.57a8.23,8.23,0,0,0,2.34,2.07,2.81,2.81,0,0,0,3-.12C314.35,174.07,313.87,171.94,313.25,170.32Z"
         style="fill: rgb(69, 90, 100); transform-origin: 305.822px 166.921px;" id="elyoyymvm06u8"
         class="animable"></path>
      <path
         d="M317.31,181.38c-8.06-14.24-20.54-23.79-36.63-26.83-9.07-1.72-13.16-.47-20,.17s-13.38,3.13-18.24,8c-5.78,5.79-10.95,12.5-13.21,20.36-2.32,8.08-4.65,16.21-5.45,24.58s0,17.07,3.72,24.61l20.39,7.27c11.54,2.39,23.24,4.79,35,4.09s23.79-4.89,31.55-13.76C325.2,217.56,325.38,195.63,317.31,181.38Z"
         style="fill: rgb(38, 50, 56); transform-origin: 273.24px 198.716px;" id="elzruydn0pdpo"
         class="animable"></path>
      <path
         d="M298.64,178l-26.1-16-7.46-.41c-16.48-2.77-31,13.43-33.36,26.75-2.67,14.8-5.35,33-4.87,44.29,1,22.78,19.38,27.83,19.38,27.83s-2.4,11.64-3.81,19l11.85,28.06,31.57-23.78,18.91-97A7.91,7.91,0,0,0,298.64,178Z"
         style="fill: rgb(255, 191, 157); transform-origin: 265.805px 234.399px;" id="eloooaqcve07a"
         class="animable"></path>
      <path
         d="M260.67,233.23a4.74,4.74,0,0,0-1.12-3.16,4.85,4.85,0,0,0-5.74-1.33,6.5,6.5,0,0,0-3.46,5.59h0a5.86,5.86,0,0,0,3.75,3.13,6.57,6.57,0,0,0,.77.16,5.25,5.25,0,0,0,3.76-.79A4.71,4.71,0,0,0,260.67,233.23Z"
         style="fill: rgb(255, 154, 108); transform-origin: 255.511px 233.001px;" id="elrbehkz51b2"
         class="animable"></path>
      <path
         d="M239,207.3a2.88,2.88,0,0,0,2.43,3.21,2.75,2.75,0,0,0,3.25-2.24,2.89,2.89,0,0,0-2.42-3.22A2.77,2.77,0,0,0,239,207.3Z"
         style="fill: rgb(38, 50, 56); transform-origin: 241.84px 207.781px;" id="el2aczvy8yjcx"
         class="animable"></path>
      <path
         d="M235.46,196.68c.31.42,2.67-.94,5.76-.57s5.17,2.17,5.55,1.83c.18-.15-.11-.86-1-1.7a8,8,0,0,0-4.38-1.93,7.59,7.59,0,0,0-4.64.93C235.71,195.86,235.31,196.5,235.46,196.68Z"
         style="fill: rgb(38, 50, 56); transform-origin: 241.125px 196.119px;" id="elrf27887pmq"
         class="animable"></path>
      <path
         d="M251,224c0-.17-1.84-.73-4.9-1.48-.78-.18-1.51-.42-1.58-1a4,4,0,0,1,.8-2.28l3-5.73c4.23-8.17,7.39-14.92,7.06-15.09s-4,6.32-8.25,14.49q-1.55,3-2.94,5.78a4.61,4.61,0,0,0-.77,3,2,2,0,0,0,1.17,1.3,5.14,5.14,0,0,0,1.31.35C249,224,251,224.22,251,224Z"
         style="fill: rgb(38, 50, 56); transform-origin: 249.402px 211.25px;" id="el1xpk9s90cl6"
         class="animable"></path>
      <path d="M246.2,260.5A57.22,57.22,0,0,0,277.07,256s-9.77,14.57-31.91,9.88Z"
         style="fill: rgb(255, 154, 108); transform-origin: 261.115px 261.405px;" id="eljrvu8fyonsq"
         class="animable"></path>
      <path
         d="M259.82,227.23c-.5-.09-.9,3.26-4,5.31s-6.67,1.26-6.75,1.73c-.07.2.72.74,2.23.95a8.36,8.36,0,0,0,5.61-1.25A7.35,7.35,0,0,0,260,229.5C260.33,228.11,260.05,227.24,259.82,227.23Z"
         style="fill: rgb(38, 50, 56); transform-origin: 254.608px 231.26px;" id="elz6mlrg1xtjj"
         class="animable"></path>
      <path
         d="M238.35,186.16c.43.81,2.85.58,5.58,1.13s4.94,1.54,5.63.93c.31-.3.09-1.07-.78-1.93a8.79,8.79,0,0,0-9-1.67C238.63,185.12,238.16,185.76,238.35,186.16Z"
         style="fill: rgb(38, 50, 56); transform-origin: 244.001px 186.228px;" id="elbwwqz51ul9c"
         class="animable"></path>
      <path
         d="M273.42,211.88a2.88,2.88,0,0,1-3.19,2.46,2.78,2.78,0,0,1-2.55-3,2.9,2.9,0,0,1,3.2-2.46A2.77,2.77,0,0,1,273.42,211.88Z"
         style="fill: rgb(38, 50, 56); transform-origin: 270.55px 211.61px;" id="el2aryjnpb98j"
         class="animable"></path>
      <path
         d="M277,202.62c-.41.32-2.33-1.61-5.4-2.08s-5.56.72-5.83.29c-.14-.19.33-.8,1.42-1.37a7.88,7.88,0,0,1,4.74-.69,7.57,7.57,0,0,1,4.22,2.12C277,201.76,277.24,202.48,277,202.62Z"
         style="fill: rgb(38, 50, 56); transform-origin: 271.417px 200.66px;" id="elsdgttggavl"
         class="animable"></path>
      <path
         d="M276.89,192.51c-.71.6-3-.49-5.81-1s-5.34-.34-5.78-1.16c-.19-.39.3-1,1.45-1.53a9,9,0,0,1,4.91-.41,8.79,8.79,0,0,1,4.43,2.12C277,191.44,277.21,192.21,276.89,192.51Z"
         style="fill: rgb(38, 50, 56); transform-origin: 271.145px 190.463px;" id="elzua19n0xghk"
         class="animable"></path>
      <path
         d="M294.54,223.4c.2-1.67,2.58-5.37,4.25-5.44,4.47-.17,12.35,1.1,11.13,12.26-1.67,15.26-16.65,10.44-16.63,10S293.86,229.15,294.54,223.4Z"
         style="fill: rgb(255, 191, 157); transform-origin: 301.668px 229.616px;" id="eltomo837a2va"
         class="animable"></path>
      <path
         d="M298.11,235.1c.08,0,.25.22.67.47a2.69,2.69,0,0,0,2,.26c1.67-.41,3.31-2.82,3.69-5.57a8.85,8.85,0,0,0-.33-3.88,3.07,3.07,0,0,0-1.78-2.26,1.37,1.37,0,0,0-1.65.55c-.25.41-.18.72-.27.74s-.3-.29-.1-.91a1.71,1.71,0,0,1,.7-.89,2.06,2.06,0,0,1,1.51-.23,3.78,3.78,0,0,1,2.52,2.67,9.2,9.2,0,0,1,.46,4.36c-.44,3.06-2.33,5.77-4.6,6.16a2.84,2.84,0,0,1-2.39-.67C298.1,235.48,298.06,235.13,298.11,235.1Z"
         style="fill: rgb(255, 154, 108); transform-origin: 301.854px 229.971px;" id="eldyz8vopmz1c"
         class="animable"></path>
      <path
         d="M299.4,218.11l-4.52,3.32c-13.84-18.71-39.38-64-38-61.3,0,0,12.15-2.72,24.11,1.5s34.26,14.4,31.4,28.87S299.4,218.11,299.4,218.11Z"
         style="fill: rgb(38, 50, 56); transform-origin: 284.734px 190.349px;" id="eljgux3zmo1ea"
         class="animable"></path>
      <path
         d="M321.91,218.55a3.68,3.68,0,0,0-.08-.91,14.64,14.64,0,0,0-.62-2.56,22.19,22.19,0,0,0-5.08-8.18,41.8,41.8,0,0,0-11.66-8.3c-4.77-2.52-10.24-4.77-15.41-8.13a74.52,74.52,0,0,1-13.48-10.93,78.56,78.56,0,0,1-8.95-11,80.9,80.9,0,0,1-4.84-8.28c-.48-.95-.86-1.73-1.16-2.34a3.9,3.9,0,0,0-.45-.8,4.54,4.54,0,0,0,.3.87c.23.55.55,1.38,1,2.41a70.38,70.38,0,0,0,4.66,8.44,74.45,74.45,0,0,0,8.89,11.22,72.92,72.92,0,0,0,13.58,11.08c5.24,3.4,10.76,5.65,15.5,8.11a42.55,42.55,0,0,1,11.58,8,23,23,0,0,1,5.21,7.91C321.7,217.3,321.83,218.57,321.91,218.55Z"
         style="fill: rgb(69, 90, 100); transform-origin: 291.046px 187.835px;" id="el2n103nurpmw"
         class="animable"></path>
      <path
         d="M317.11,220.18a8,8,0,0,0,0-3.41,15.67,15.67,0,0,0-4.45-8.08c-2.75-2.9-7-5.13-11.75-7.11a75.77,75.77,0,0,1-14.8-7.66,67,67,0,0,1-12.47-11,69.29,69.29,0,0,1-8-11.05,76.4,76.4,0,0,1-4.07-8.25l-.91-2.34a4.38,4.38,0,0,0-.37-.8,3.37,3.37,0,0,0,.22.85c.2.63.46,1.42.78,2.4a62.38,62.38,0,0,0,3.87,8.41,65.9,65.9,0,0,0,20.47,22.45,74.08,74.08,0,0,0,15,7.68c4.75,1.94,8.92,4.07,11.64,6.83a15.81,15.81,0,0,1,4.54,7.75A17.51,17.51,0,0,1,317.11,220.18Z"
         style="fill: rgb(69, 90, 100); transform-origin: 288.792px 190.33px;" id="el6k1gywzmcvw"
         class="animable"></path>
      <path
         d="M294.5,243.59c0-.1,1.33-.05,3.67-.25a22,22,0,0,0,9.26-3.27,30.64,30.64,0,0,0,9.91-10.66,53.56,53.56,0,0,0,6.28-16.85,41.75,41.75,0,0,0-.25-17.9,44.56,44.56,0,0,0-5.73-13.53c-4.56-7.11-8.82-10.39-8.61-10.57a3.36,3.36,0,0,1,.76.57c.46.42,1.19,1,2,1.84a47.18,47.18,0,0,1,6.42,7.78,43.52,43.52,0,0,1,6,13.69,44.81,44.81,0,0,1,1.18,8.81,45.59,45.59,0,0,1-.84,9.5,53,53,0,0,1-6.47,17.14,30.84,30.84,0,0,1-10.34,10.79,21.17,21.17,0,0,1-9.6,3,19.55,19.55,0,0,1-2.75,0A3.3,3.3,0,0,1,294.5,243.59Z"
         style="fill: rgb(69, 90, 100); transform-origin: 309.948px 207.144px;" id="elsam7bz6pxcs"
         class="animable"></path>
      <path
         d="M312.8,355.38c.85,1.05,10.5,31.93,10.5,31.93L269,396.37l1.65,25.8,80-1.12s16.85-7,12.93-26.39c-3.38-16.72-21.59-74.26-23-79.78s-13.55-25.21-26.74-29.41L300.45,327Z"
         style="fill: rgb(64, 123, 255); transform-origin: 316.586px 353.82px;" id="elkcr8l173a7o"
         class="animable"></path>
      <path
         d="M163.35,417s23.18-28.05,25.73-39.07-3.22-80.62-3.22-80.62l41.2-36.78,16.3,12.84s5,20.92,16.8,22.12,26.38-15.21,26.38-15.21,19.77.1,32.81,7.6l-2.08,43.06c-2.74,18.88-5.49,37-9.19,44.8l-.3,2.19L288,416.52Z"
         style="fill: rgb(64, 123, 255); transform-origin: 241.35px 338.765px;" id="el8dh6jylsqnq"
         class="animable"></path>
      <path
         d="M185.85,298.15s.15-14.32.15-15.59-9.23-47.4-11.46-65.53S173,153.09,173,153.09l32.45-6,8.93,68.68,8,23.94,5.43,24-4.25,7.42Z"
         style="fill: rgb(64, 123, 255); transform-origin: 200.355px 222.62px;" id="elm4xvycodepm"
         class="animable"></path>
      <path
         d="M190.46,237.72a1.39,1.39,0,0,1,.08.47c0,.36.09.8.14,1.33.1,1.25.24,2.91.41,4.93a138.94,138.94,0,0,1,.46,16.31,73.79,73.79,0,0,1-2.65,16.1c-.59,2-1.08,3.62-1.48,4.72l-.46,1.27a1.46,1.46,0,0,1-.19.43,2.48,2.48,0,0,1,.09-.47l.36-1.29c.34-1.12.79-2.74,1.32-4.76a80.15,80.15,0,0,0,2.48-16c.29-6.34-.1-12.09-.3-16.26-.1-2-.18-3.68-.24-4.93,0-.53,0-1,0-1.35A1.35,1.35,0,0,1,190.46,237.72Z"
         style="fill: rgb(38, 50, 56); transform-origin: 189.192px 260.5px;" id="eltvw15bt3bum"
         class="animable"></path>
      <path
         d="M317.27,328.31a3.18,3.18,0,0,1-.06.62l-.27,1.74c-.21,1.59-.51,3.77-.87,6.44-.74,5.43-1.74,13-3.35,21.18a119.58,119.58,0,0,1-5.63,20.7c-.26.64-.47,1.26-.73,1.82l-.74,1.59-.65,1.38c-.2.42-.44.78-.63,1.11l-.91,1.52a2.38,2.38,0,0,1-.35.51,3.91,3.91,0,0,1,.26-.56l.82-1.57c.17-.34.4-.7.59-1.12s.39-.9.61-1.39l.7-1.6c.24-.56.44-1.18.69-1.82a131.39,131.39,0,0,0,5.46-20.67c1.6-8.2,2.66-15.71,3.49-21.13.41-2.72.77-4.91,1-6.42.14-.76.28-1.34.36-1.73A2.39,2.39,0,0,1,317.27,328.31Z"
         style="fill: rgb(38, 50, 56); transform-origin: 310.175px 357.615px;" id="eligzr74dkvq"
         class="animable"></path>
      <path
         d="M339.52,402a22,22,0,0,1-2.08-2.52,63.75,63.75,0,0,0-5.07-6c-4.33-4.36-9.19-6-9.07-6.22s.31.06.84.25a23.8,23.8,0,0,1,2.2,1,25.54,25.54,0,0,1,6.4,4.63,47.37,47.37,0,0,1,5,6.11A20.4,20.4,0,0,1,339.52,402Z"
         style="fill: rgb(38, 50, 56); transform-origin: 331.409px 394.59px;" id="eld28xdt5m5l4"
         class="animable"></path>
      <path
         d="M270.69,422.17a2,2,0,0,1-.08-.49c0-.36-.07-.83-.13-1.42-.09-1.28-.23-3.08-.4-5.32-.32-4.61-.77-11-1.28-18.56l0-.22.22,0,14.38-2.42,28.21-4.64,8.56-1.34,2.33-.34a4.6,4.6,0,0,1,.82-.08,6,6,0,0,1-.8.18l-2.32.44-8.53,1.51-28.19,4.78-14.38,2.38.2-.25c.44,7.53.82,14,1.09,18.57.12,2.25.21,4,.27,5.33,0,.59,0,1.06.05,1.42A3.21,3.21,0,0,1,270.69,422.17Z"
         style="fill: rgb(38, 50, 56); transform-origin: 296.06px 404.755px;" id="el05f7p7myv3s6"
         class="animable"></path>
      <path
         d="M260.48,361.8s-.13.15-.42.39l-1.28,1.05-.94.74c-.35.26-.75.51-1.17.8a33.34,33.34,0,0,1-2.94,1.84l-1.76,1c-.61.34-1.29.61-2,.94-1.36.68-2.88,1.2-4.47,1.8a49.9,49.9,0,0,1-21.82,2.39c-1.68-.24-3.29-.43-4.76-.79-.73-.18-1.45-.3-2.13-.49l-1.93-.58a31.73,31.73,0,0,1-3.26-1.16c-.48-.19-.92-.35-1.32-.53l-1.08-.52-1.47-.74a2.92,2.92,0,0,1-.5-.29,2.17,2.17,0,0,1,.55.19l1.51.65,1.08.48c.41.17.86.31,1.33.49,1,.33,2,.77,3.27,1.08l1.92.54c.67.18,1.39.29,2.12.45a47.26,47.26,0,0,0,4.72.74,55.55,55.55,0,0,0,10.94,0,56.25,56.25,0,0,0,10.67-2.34c1.58-.58,3.1-1.09,4.45-1.75.68-.31,1.36-.58,2-.9l1.76-.94c1.15-.57,2.09-1.23,3-1.76.42-.28.83-.52,1.19-.76l1-.71,1.33-1A3.39,3.39,0,0,1,260.48,361.8Z"
         style="fill: rgb(38, 50, 56); transform-origin: 233.855px 367.433px;" id="elh9foef326wb"
         class="animable"></path>
      <path
         d="M186.6,420.88a2,2,0,0,1,1.1-2.76c6.26-2.19,28.6-10,30.08-10.53,1.71-.57,36-7.21,36-7.21l15.49-.86,1.32,20.77H255.88a38.28,38.28,0,0,1-5.83,1.26c-2.19.21-35.09,1.93-43.82,1.56a3.17,3.17,0,0,1-2.64-1.67h0s-5.49,2.18-8.93,1.72-3.43-1.15-3.43-1.15S187.91,423.32,186.6,420.88Z"
         style="fill: rgb(255, 191, 157); transform-origin: 228.492px 411.372px;" id="elkkjmnpg2d7"
         class="animable"></path>
      <path
         d="M229.61,414a3.62,3.62,0,0,1-1,.51,18.81,18.81,0,0,1-2.86.91c-1.22.3-2.7.56-4.29,1-.8.2-1.6.51-2.49.77s-1.79.49-2.73.69c-1.89.41-3.67.73-5.32,1s-3.16.3-4.37.56a4.57,4.57,0,0,0-2.58,1.14,1.18,1.18,0,0,0-.17,1s-.09-.07-.15-.26a1.14,1.14,0,0,1,.15-.83,4.39,4.39,0,0,1,2.67-1.4c1.24-.32,2.75-.41,4.37-.68s3.43-.67,5.29-1.07c.93-.2,1.84-.42,2.7-.67s1.69-.55,2.51-.74c1.63-.41,3.11-.63,4.33-.88A40,40,0,0,0,229.61,414Z"
         style="fill: rgb(255, 154, 108); transform-origin: 216.619px 417.79px;" id="el5mc24cllkd3"
         class="animable"></path>
      <path
         d="M222.73,409.74a8.39,8.39,0,0,1-1.32.46l-3.66,1.07c-3.08.9-7.35,2.14-12,3.57s-8.93,2.76-12,3.73a5.32,5.32,0,0,0-1.88.91,1.91,1.91,0,0,0-.7,1.33,1.54,1.54,0,0,0,.43,1.22s-.13,0-.3-.22a1.39,1.39,0,0,1-.33-1,2.11,2.11,0,0,1,.7-1.54,5.62,5.62,0,0,1,2-1c3-1.06,7.27-2.45,12-3.88s9-2.61,12.1-3.42c1.55-.41,2.82-.72,3.7-.92A6.65,6.65,0,0,1,222.73,409.74Z"
         style="fill: rgb(255, 154, 108); transform-origin: 206.848px 415.885px;" id="elvhmr589fbz"
         class="animable"></path>
   </g>
   <defs>
      <filter id="active" height="200%">
         <feMorphology in="SourceAlpha" result="DILATED" operator="dilate" radius="2"></feMorphology>
         <feFlood flood-color="#32DFEC" flood-opacity="1" result="PINK"></feFlood>
         <feComposite in="PINK" in2="DILATED" operator="in" result="OUTLINE"></feComposite>
         <feMerge>
            <feMergeNode in="OUTLINE"></feMergeNode>
            <feMergeNode in="SourceGraphic"></feMergeNode>
         </feMerge>
      </filter>
      <filter id="hover" height="200%">
         <feMorphology in="SourceAlpha" result="DILATED" operator="dilate" radius="2"></feMorphology>
         <feFlood flood-color="#ff0000" flood-opacity="0.5" result="PINK"></feFlood>
         <feComposite in="PINK" in2="DILATED" operator="in" result="OUTLINE"></feComposite>
         <feMerge>
            <feMergeNode in="OUTLINE"></feMergeNode>
            <feMergeNode in="SourceGraphic"></feMergeNode>
         </feMerge>
         <feColorMatrix type="matrix"
            values="0   0   0   0   0                0   1   0   0   0                0   0   0   0   0                0   0   0   1   0 "></feColorMatrix>
      </filter>
   </defs>
</svg>